<?xml version="1.0" encoding="UTF-8"?>
<!DOCTYPE svg  PUBLIC '-//W3C//DTD SVG 1.1//EN'  'http://www.w3.org/Graphics/SVG/1.1/DTD/svg11.dtd'>
<svg enable-background="new 0 0 43.15 31.8" version="1.1" viewBox="0 0 43.15 31.8" xml:space="preserve" xmlns="http://www.w3.org/2000/svg">
<g clip-rule="evenodd" fill-rule="evenodd">
	<path d="m36.95 19.3l-0.3 0.851c-0.233 0.632-0.35 1.149-0.35 1.549 0 0.7-0.433 2.033-1.3 4l-12.75 6.05-14.75-3.1-3.6-6 33.05-3.35z" fill="#F2F3F1"/>
	<path d="m16.4 21.35c0.4 0.233 1.75 1.9 4.05 5l0.55 0.15 1.25 5.25-14.75-3.1-3.6-6 12.5-1.3z" fill="#C2BCB9"/>
	<path d="m5.05 17.1c-0.167-0.333-0.3-0.966-0.4-1.899l-0.1-1.3c3.667 0.934 5.55 1.15 5.65 0.65 0.033-0.333 0.017-0.966-0.05-1.9l-0.1-1.35 7.7 0.5 0.65-3.6 3.1 0.9 0.25-2.05 3.1 1.55 3.101-1 2.3 2.15 3.349-0.651-0.149 1.8 2.449-0.9-0.5 4.15 2.449 0.1 2.551 1.05-4.6 5.15c-1.566 0.5-3.116 1.184-4.649 2.05-1.267 0.7-3.15 1.517-5.65 2.45-2.667 1-4.35 1.467-5.05 1.399-0.833-0.066-2.717-0.383-5.65-0.949-3.134-0.6-5.051-1.05-5.751-1.35-0.433-0.2-1.483-0.45-3.15-0.75-1.5-0.267-2.433-0.533-2.8-0.8-0.4-0.333-0.583-1.184-0.55-2.55l0.2-1.95 2.8 1.55c-0.067-1.133-0.233-1.95-0.5-2.45z" fill="#FFEBA6"/>
	<path d="m25.5 24.55l0.65 0.25-5.4 2.2-6.7-2.2 2.3-0.35 0.9-1.45 2 1c1.467 0.634 2.434 0.95 2.9 0.95 0.767 0 1.533-0.816 2.3-2.45l1.05 2.05z" fill="#E3C056"/>
	<path d="m6.25 16.6c1.1 0.534 1.934 0.834 2.5 0.9 0.967 0.066 2.133 0.316 3.5 0.75l-1.7-4.5 1.25 0.3c0.934 0.2 1.717 0.267 2.35 0.2 1.034-0.067 2.45-0.833 4.25-2.3l1.15-2.3 2.35 1.55-0.4-2.1 2.85 0.9 0.5-1.4 0.75 0.45c0.601 0.3 1.084 0.45 1.45 0.45 0.601 0 1.233-0.167 1.9-0.5l1.149 1.4 3.351 0.5c-1.533 0.533-2.65 0.967-3.351 1.3-0.399 0.2 0.233 0.35 1.9 0.45 0.833 0.033 1.7 0.05 2.6 0.05v1.85l0.801 0.75c0.6 0.5 1.033 0.75 1.3 0.75h1.649l-1.399 3.25c-1.967 0.767-3.384 1.184-4.25 1.25-0.533 0.066-1.017-0.366-1.45-1.3l-0.5-1.4 2.7-1.899c-1.367-0.934-2.733-1.4-4.101-1.4-0.866 0-1.783-0.466-2.75-1.4l-1.25-1.45-1.3 1.8-3.95 0.75 2.7 1.15c0.601 0.2 1.8 0.033 3.601-0.5l-0.5 1.3c-0.197 0.568-0.289 0.985-0.275 1.25-2.728-0.72-4.486-1.003-5.275-0.851-0.633 0.101-1.717 0.101-3.25 0l-2.05-0.149 0.4 3.2 4.75 1.05-8.75-0.75 0.35 1.35c0.3 0.967 0.583 1.584 0.85 1.851 0.267 0.3 1.25 0.649 2.95 1.05 1.233 0.321 2.108 0.514 2.625 0.575-4.447-0.321-7.305-0.563-8.575-0.726-0.8-0.1-2-0.366-3.6-0.8l-2.15-0.6c-0.7-0.2-1.05-0.5-1.05-0.9l0.25-1.451v-0.65l0.65 0.6c0.533 0.434 1.1 0.717 1.7 0.85l3.6 0.75-2.85-2.2-1.4-3.85 1.45 0.8zm19.375 0.85c0.851 0.226 1.793 0.492 2.825 0.8-1.467-0.1-2.367-0.267-2.7-0.5-0.068-0.058-0.11-0.157-0.125-0.3z" fill="#E3C056"/>
	<path d="m2.85 21.75l7.35 1.65-2.6-3.2c1.9 1.533 3.066 2.05 3.5 1.55 0.267-0.333 1.117 0.116 2.55 1.35 0.7 0.634 1.383 1.284 2.05 1.95l5.3 1.45 7.85-3.6 1.1-1.1c0.8-0.767 1.416-1.217 1.85-1.35 0.667-0.267 2.084-0.434 4.25-0.5l-15.05 7.95-17.65-5-0.5-1.15z" fill="#AB903B"/>
	<path d="m10.2 14.55l0.5-1.55 2.2 2.8 2.05 1.95c-1.9 0-3.067-0.167-3.5-0.5-0.3-0.267-0.667-1-1.1-2.2l-0.15-0.5z" fill="#AB903B"/>
	<path d="m33.45 15.95l0.85 0.25c0.567 0.267 0.934 0.616 1.101 1.05 0.267 0.667 0.783 1.35 1.55 2.05-1.367 0-2.351 0.084-2.95 0.25-0.434 0.134-1.184-0.083-2.25-0.649-1.033-0.567-1.366-0.917-1-1.051 0.532-0.166 1.433-0.8 2.699-1.9z" fill="#AB903B"/>
	<path d="m25.35 15.95l1.2 0.649c0.834 0.4 1.384 0.567 1.65 0.5 0.434-0.1 1.883 0.15 4.35 0.75l0.55 2.101-2.85 1-4.25 2.85-1.15-3.85c-1.633 0.767-2.666 1.316-3.1 1.649l-2.55 2.551-0.55-2.301c-0.033-0.267-0.433-0.6-1.2-1l-1.1-0.55 2.6-1.8 1.3 0.8c0.967 0.467 1.684 0.55 2.15 0.25 0.767-0.532 1.75-1.733 2.95-3.599z" fill="#E3C056"/>
	<path d="m12.75 15.7c-0.967-0.634-1.433-1.067-1.4-1.3 0.033-0.267 0.95-0.15 2.75 0.35 1.933 0.5 3.033 0.6 3.3 0.3 0.2-0.233 0.284-0.867 0.25-1.9-0.033-0.9 0.184-1.467 0.65-1.7 0.5-0.267 1.333-0.333 2.5-0.2 0.601 0.066 1.434 0.167 2.5 0.3 0.867 0 1.384-0.983 1.55-2.95l0.8 0.4c0.6 0.3 1.066 0.467 1.399 0.5 0.233 0.033 0.417 0.283 0.55 0.75 0.134 0.533 0.367 0.933 0.7 1.2 0.4 0.267 0.867 0.45 1.4 0.55 0.333 0.066 0.467 0.133 0.399 0.2-0.133 0.167-0.1 0.383 0.101 0.65 0.267 0.3 0.75 0.6 1.45 0.9 1.033 0.433 2.533 0.65 4.5 0.65-0.233 0.267-0.467 0.583-0.7 0.95-0.467 0.733-0.7 1.317-0.7 1.75 0 0.334 0.217 0.817 0.65 1.45 0.433 0.634 0.649 1.101 0.649 1.4 0 0.434-0.283 0.583-0.85 0.45-0.533-0.101-0.934-0.384-1.2-0.851-0.233-0.366-0.667-0.767-1.3-1.2l-0.9-0.5c0.767-0.233 1.233-0.533 1.4-0.899 0.1-0.167-0.184-0.417-0.851-0.75-0.833-0.4-1.366-0.7-1.6-0.9-0.333-0.333-0.783-0.533-1.35-0.6-0.2-0.034-0.65-0.05-1.351-0.05-0.3 0-0.85-0.483-1.649-1.45l-1.051-1.5-3.199 3.7c-0.2 0.333-0.017 0.633 0.55 0.9 0.533 0.267 1.166 0.367 1.899 0.3 0.7-0.066 1.4 0.051 2.101 0.351 0.733 0.3 1.316 0.733 1.75 1.3 0.333 0.434 0.85 0.717 1.55 0.85 0.767 0.134 1.233 0.284 1.4 0.45 0.267 0.267 0.033 0.566-0.7 0.9-0.9 0.366-1.483 0.616-1.75 0.75-0.267 0.133-0.3 0.416-0.101 0.85 0.267 0.601 0.384 1.05 0.351 1.351 0 0.133 0.133 0.733 0.399 1.8 0.2 0.733 0.067 1.2-0.399 1.399-0.467 0.233-0.851-0.116-1.15-1.05l-0.25-1.5-1.647 0.749-1.301-4.85c-0.666 0.366-1.35 0.783-2.05 1.25-1.366 1-2.1 1.816-2.2 2.45-0.033 0.1-0.033 0.883 0 2.35 0.033 0.767-0.184 1.15-0.65 1.15-0.5 0-0.767-0.233-0.8-0.7 0.067-0.667 0.117-1.217 0.15-1.65 0.067-0.533-0.017-1.184-0.25-1.95l-0.4-1-5.1-1.899 0.05 1.5c0.066 1.1 0.167 1.916 0.3 2.45 0.2 0.666 0.233 1.3 0.1 1.899-0.133 0.601-0.417 1-0.85 1.2-0.367 0.167-0.583-0.167-0.65-1v-2.35c0-0.567-0.267-1.25-0.8-2.051l-0.85-1.05c1.367-1 2.3-2.017 2.8-3.05 0.301-0.565 1e-3 -1.166-0.899-1.799z" fill="#FEDC00"/>
	<path d="m14.3 17.1c-0.267 0.134-0.483 0.4-0.65 0.801-0.066 0.233-0.083 0.383-0.05 0.449 0.033 0.034 0.117 0.101 0.25 0.2l0.3 0.2c0.1 0.066 0.133 0.184 0.1 0.35-0.033 0.134-0.3 0.301-0.8 0.5-0.633 0.134-1.083 0.317-1.35 0.551l-0.45 0.449c-0.133 0.067-0.233-0.083-0.3-0.449-0.067-0.301-0.017-0.5 0.15-0.601 0.233-0.166 0.383-0.316 0.45-0.45 0.1-0.166 0.083-0.433-0.05-0.8-0.1-0.333-0.117-0.566-0.05-0.7 0.1-0.166 0.333-0.216 0.7-0.149 0.467 0.1 0.733 0.133 0.8 0.1 0.2-0.066 0.417-0.184 0.65-0.35 0.14-0.12 0.232-0.237 0.275-0.351l0.025 0.25z" fill="#D9BC00"/>
	<path d="m33.1 17.1c-0.066 0.334 0.084 0.65 0.45 0.95 0.533 0.467 0.834 0.767 0.9 0.9 0.1 0.2 0.3 0.434 0.6 0.7l0.45 0.35c0.167 0.167 0.117 0.316-0.15 0.45-0.166 0.1-0.399 0.066-0.699-0.101-0.234-0.165-0.418-0.349-0.551-0.549-0.333-0.533-0.633-0.85-0.899-0.95-0.267-0.133-0.533-0.333-0.8-0.6-0.334-0.333-0.601-0.566-0.801-0.7 0.134-0.066 0.367-0.166 0.7-0.3 0.3-0.1 0.517-0.217 0.65-0.35l0.15 0.2z" fill="#D9BC00"/>
	<path d="m18.4 15.8l1.95 0.8c-1.2-0.1-2.15-0.017-2.85 0.25-0.633 0.233-1.05 0.384-1.25 0.45-0.367 0.066-0.717 0.05-1.05-0.05-0.3-0.134-0.617-0.434-0.95-0.9-0.333-0.6-0.617-1.083-0.85-1.45s-0.033-0.383 0.6-0.05c0.934 0.533 1.55 0.816 1.85 0.85 0.667 0.067 1.517 0.1 2.55 0.1z" fill="#FFF464"/>
	<path d="m19.3 12.45c0.067-0.167 0.634-0.25 1.7-0.25 1.1 0 1.866 0.083 2.3 0.25 0.367 0.167 0.101 0.35-0.8 0.55-1.434 0.3-2.2 0.467-2.3 0.5-0.467 0.167-0.767 0.05-0.9-0.35v-0.7z" fill="#FFF464"/>
	<path d="m26.15 10.3l0.25-0.15c0.199-0.066 0.416-0.017 0.649 0.15 0.334 0.233 0.417 0.833 0.25 1.8l-1.149-1.8z" fill="#FFF464"/>
	<path d="m20.6 18.4c0.433 0 0.6 0.116 0.5 0.35-0.066 0.233-0.283 0.417-0.649 0.55-1.333 0.566-2.1 1.117-2.3 1.65-0.1 0.233-0.566 0.149-1.4-0.25-1.133-0.533-1.816-0.834-2.05-0.9-0.333-0.066-0.284-0.116 0.15-0.149 0.8-0.101 1.383-0.267 1.75-0.5 0.699-0.434 2.032-0.684 3.999-0.751z" fill="#FFF464"/>
	<path d="m25.75 17.75c0.333-0.434 1.017-0.134 2.05 0.9 0.233 0.233 0.634 0.449 1.2 0.649 0.6 0.233 0.967 0.4 1.1 0.5 0.233 0.167-0.083 0.25-0.949 0.25-1.067-0.066-1.733-0.1-2-0.1-0.301 0-0.817-0.15-1.551-0.45l-1-0.45 1.15-1.299z" fill="#FFF464"/>
	<path d="m30 13.5c0-0.3 0.3-0.3 0.9 0 0.5 0.267 0.933 0.566 1.3 0.9 0.166 0.167 0.7 0.25 1.6 0.25 0.967-0.033 1.584 0.017 1.851 0.15 0.433 0.167 0.083 0.35-1.051 0.55-1.133 0.2-1.982 0.267-2.55 0.2-0.467-0.066-0.934-0.383-1.399-0.95-0.434-0.467-0.651-0.833-0.651-1.1z" fill="#FFF464"/>
	<path d="m12.25 22l1.15 2.3c0.534 1.101 0.45 2-0.25 2.7-0.3 0.3-0.5 0.033-0.6-0.8-0.133-0.767-0.15-1.316-0.05-1.65 0.1-0.333 0.017-1.184-0.25-2.55z" fill="#FFF464"/>
	<path d="m8.5 15.4c0.133-0.367 0.4-0.333 0.8 0.1 0.4 0.467 0.517 0.833 0.35 1.1-0.133 0.267-0.4 0.25-0.8-0.05-0.367-0.333-0.483-0.717-0.35-1.15z" fill="#E3C056"/>
	<path d="m22.65 23c0.267-0.066 0.383 0.1 0.35 0.5s-0.233 0.667-0.6 0.8c-0.4 0.134-0.584-0.017-0.551-0.45 0.035-0.433 0.301-0.716 0.801-0.85z" fill="#E3C056"/>
	<path d="m6.6 20.2l-0.65-1.95 2.7 1.55c0.333 0.167 0.467 0.851 0.4 2.05l-2.45-1.65z" fill="#AB903B"/>
	<path d="m4.9 25.05l1.05 0.65c0.044 0.061 0.085 0.127 0.125 0.2 0.263 0.072 0.572 0.121 0.925 0.15 0.467 0.033 1.15 0.05 2.05 0.05 0.634 0.034 1.634 0.4 3 1.101 0.733 0.399 1.7 0.934 2.9 1.6 0.533 0.3 1.4 0.334 2.6 0.101 1.4-0.267 2.2-0.384 2.4-0.351 0.767 0.066 1.5 0.533 2.2 1.4l0.4 1.649-15.05-3.05c-0.539-1.168-1.014-2.052-1.425-2.649-0.344-0.108-0.603-0.259-0.775-0.45l-0.4-0.401z" fill="#ADA8A5"/>
	<path d="m31.55 27.475c-0.856 0.589-1.506 0.896-1.95 0.926-0.025 2e-3 -0.051 2e-3 -0.074 0l2.024-0.926zm-2.025 0.925l-6.975 3.2-0.4-1.65c0.866-0.867 1.416-1.517 1.649-1.95 0.167-0.233 0.8-0.434 1.9-0.6 0.566-0.067 1.1-0.117 1.6-0.15l0.55 0.65c0.512 0.383 1.071 0.55 1.676 0.5zm6.525-4.75l-0.4 1.95-4.101 1.875c1.138-0.782 2.638-2.056 4.501-3.825z" fill="#DCD5D2"/>
	<path d="m28.7 22.25l1.4 2.55c0.367 0.767 0.25 1.334-0.35 1.7-0.267 0.134-0.4 0-0.4-0.4v-1.149l-0.65-2.701z" fill="#FFF464"/>
	<path d="m19.3 15.3c0.333-0.566 1.017-0.617 2.05-0.15 1.034 0.434 1.384 0.917 1.051 1.45-0.334 0.5-1 0.534-2 0.101-1.001-0.434-1.368-0.901-1.101-1.401z" fill="#9E2929"/>
	<path d="m8.5 20.8c0-0.7 0.55-0.983 1.65-0.85 1.067 0.133 1.6 0.55 1.6 1.25 0 0.733-0.533 1.05-1.6 0.95-1.1-0.1-1.65-0.55-1.65-1.35z" fill="#9E2929"/>
	<path d="m18.65 21.85c-0.267-0.733 0.034-1.333 0.9-1.8 0.9-0.5 1.601-0.416 2.101 0.25 0.465 0.7 0.149 1.266-0.951 1.7-1.133 0.467-1.817 0.417-2.05-0.15z" fill="#9E2929"/>
	<path d="m26 21.6c0.066-0.733 0.6-1.017 1.6-0.85 0.967 0.167 1.334 0.667 1.101 1.5-0.233 0.767-0.75 1-1.55 0.7-0.835-0.3-1.217-0.75-1.151-1.35z" fill="#9E2929"/>
	<path d="m27.55 13.5c-0.2-0.567 0.217-1.117 1.25-1.65 1.033-0.534 1.65-0.55 1.851-0.05 0.166 0.534-0.267 1.067-1.301 1.6-1.034 0.567-1.633 0.6-1.8 0.1z" fill="#9E2929"/>
	<path d="m13 13.9c0.2-0.433 0.6-0.55 1.2-0.35 0.633 0.2 0.883 0.534 0.75 1-0.133 0.434-0.534 0.534-1.2 0.3-0.667-0.267-0.917-0.583-0.75-0.95z" fill="#9E2929"/>
	<path d="m32.7 16.4c0.899-0.233 1.417-0.051 1.55 0.55 0.134 0.533-0.2 0.899-1 1.1s-1.283 0.101-1.45-0.3c-0.3-0.667 0-1.116 0.9-1.35z" fill="#9E2929"/>
	<path d="m16.5 12.1l0.35-0.3-0.2 0.25c0.767 0.266 1.35 0.25 1.75-0.05 0.4 0.633 0.45 1.1 0.15 1.4-0.267-0.133-0.5-0.117-0.7 0.05-0.2 0.2-0.4 0.267-0.6 0.2-0.267-0.066-0.483-0.3-0.65-0.7-0.166-0.367-0.2-0.65-0.1-0.85z" fill="#82AE3C"/>
	<path d="m23.05 11.1c0.2-0.034 0.5-0.15 0.9-0.35 0.331-0.181 0.605-0.297 0.825-0.35 0.13 0.172 0.404 0.506 0.824 1-0.199 0.1-0.399 0.267-0.599 0.5-0.233 0.3-0.417 0.5-0.55 0.6-0.667-0.6-1.134-1.067-1.4-1.4z" fill="#82AE3C"/>
	<path d="m23.7 16.6l0.1-0.3c0.167 0.167 0.667 0.15 1.5-0.05 0.601-0.134 0.867 0.233 0.8 1.1-0.666-0.033-1.333 0.134-2 0.5l-0.4-1.25z" fill="#82AE3C"/>
	<path d="m20.45 16.95l0.3-0.25c0.6 0.166 0.967 0.416 1.1 0.75-0.399 0-0.85 0.217-1.35 0.649-0.433-0.267-0.733-0.6-0.9-1 0.267-0.165 0.55-0.215 0.85-0.149z" fill="#82AE3C"/>
	<path d="m12.1 20.2v0.1c0.767-0.267 1.233-0.383 1.4-0.35 0.1 0.666 0.05 1.149-0.15 1.45-0.233 0.333-0.684 0.483-1.35 0.449 0-0.932 0.033-1.483 0.1-1.649z" fill="#82AE3C"/>
	<path d="m16.75 21.45v0.15c0.367-0.066 0.717 0.017 1.05 0.25 0.4 0.267 0.384 0.601-0.05 1-0.4-0.1-0.733-0.3-1-0.6-0.3-0.333-0.3-0.6 0-0.8z" fill="#82AE3C"/>
	<path d="m26.3 19.575c0.225-0.288 0.475-0.363 0.75-0.226 0.334 0.167 0.316 0.483-0.05 0.95-0.333 0.4-0.684 0.533-1.05 0.4-0.334-0.134-0.434-0.467-0.3-1 0.183-0.13 0.4-0.172 0.65-0.124z" fill="#82AE3C"/>
	<path d="m31.8 15.05h-0.25c1 0.067 1.584 0.434 1.75 1.101-0.2 0-0.6 0.066-1.2 0.199-0.466 0.134-0.8 0.134-1 0-0.466-0.3-0.583-0.616-0.35-0.95 0.2-0.334 0.55-0.45 1.05-0.35z" fill="#82AE3C"/>
	<path d="m13 16.05l0.15-0.1c-0.133 0.2-0.167 0.366-0.1 0.5 0.067 0 0.617 0.133 1.65 0.399-0.367 0.267-0.55 0.65-0.55 1.15-0.466-0.033-0.85-0.083-1.15-0.15-0.5-0.1-0.8-0.267-0.9-0.5-0.067-0.199 0.033-0.483 0.3-0.85 0.267-0.332 0.467-0.482 0.6-0.449z" fill="#82AE3C"/>
	<path d="m16.4 14.3c0.278-0.044 0.561 6e-3 0.85 0.15 0.4 0.2 0.4 0.483 0 0.85-0.367 0.267-0.683 0.217-0.95-0.15-0.278-0.339-0.244-0.623 0.1-0.85z" fill="#82AE3C"/>
	<path d="m23.75 12.725l-0.05-0.025c0.533-0.2 0.767-0.117 0.7 0.25-0.101 0.4-0.334 0.616-0.7 0.65-0.434 0.033-0.584-0.15-0.45-0.55 0.088-0.242 0.255-0.35 0.5-0.325z" fill="#82AE3C"/>
	<path d="m26.975 13.5c0.431-0.154 0.788 0.012 1.075 0.5-0.2 0.5-0.75 0.75-1.649 0.75-0.067-0.434-0.017-0.85 0.149-1.25h0.425z" fill="#82AE3C"/>
	<path d="m20.85 11.3c0.133-0.4 0.6-0.6 1.4-0.6 0.833 0.033 1.184 0.316 1.05 0.85-0.133 0.534-0.6 0.733-1.399 0.6-0.835-0.167-1.184-0.45-1.051-0.85z" fill="#9E2929"/>
	<path d="m7.75 18.4l-0.15 0.35c0.467-0.134 0.733 0.05 0.8 0.55s-0.1 0.834-0.5 1c-0.767 0.3-1.1 0.117-1-0.55 0.1-0.634 0.383-1.083 0.85-1.35z" fill="#9E2929"/>
	<path d="m28.05 18.5v0.15c0.367-0.101 0.684-0.084 0.95 0.05 0.3 0.133 0.45 0.366 0.45 0.7-0.733 0.066-1.283 0.1-1.65 0.1-0.1-0.4-0.017-0.733 0.25-1z" fill="#9E2929"/>
	<path d="m24.6 18.4l0.25-0.15c-0.199 0.2-0.25 0.4-0.149 0.6 0.033 0.101 0.133 0.233 0.3 0.4 0.134 0.267 0.267 0.684 0.4 1.25 0.199 0.634 0.583 1.566 1.149 2.8 0.134 0.467 0.2 0.75 0.2 0.851 0.033 0.333-0.1 0.55-0.4 0.649-0.233 0.101-0.416 0.033-0.55-0.2-0.033-0.033-0.116-0.25-0.25-0.649-0.5-1.3-0.767-2.316-0.8-3.05h-0.15c-0.199-0.434-0.366-0.65-0.5-0.65-0.133 0-0.383 0.15-0.75 0.45-0.166 0.133-0.517 0.35-1.05 0.649-0.434 0.233-0.75 0.483-0.95 0.75-0.233 0.334-0.383 0.667-0.45 1-0.033 0.2-0.05 0.584-0.05 1.15 0 0.634-0.117 1.384-0.35 2.25-0.066 0.267-0.183 0.467-0.35 0.6-0.233 0.2-0.4 0.117-0.5-0.25-0.033-0.1 0-0.333 0.1-0.699 0.133-0.434 0.2-0.7 0.2-0.801-0.033-0.666-0.05-1.15-0.05-1.45 0.034-0.534 0.15-0.983 0.35-1.351 0.133-0.233 0.483-0.566 1.05-1 0.267-0.233 0.601-0.649 1-1.25 0.267-0.233 0.566-0.649 0.9-1.25 0.133-0.267 0.316-0.483 0.55-0.649 0.333-0.2 0.616-0.2 0.85 0z" fill="#D9BC00"/>
	<path d="m17.9 12.8c-0.133 0.034-0.2 0.15-0.2 0.35 0.033 0.2 0.1 0.367 0.2 0.5 0.133 0.133 0.3 0.217 0.5 0.25 0.1 0.033 0.284 0.067 0.55 0.1 1.033 0.333 1.35 0.667 0.95 1-0.1 0.1-0.267 0.15-0.5 0.15s-0.4 0.017-0.5 0.05-0.183 0.1-0.25 0.2c-0.1 0.1-0.25 0.15-0.45 0.15s-0.5-0.066-0.9-0.2c-0.4-0.167-0.7-0.25-0.9-0.25 0.633-0.034 1.017-0.333 1.15-0.9-0.033-0.367-0.05-0.65-0.05-0.85-0.033-0.367 0.05-0.583 0.25-0.65l0.15 0.1z" fill="#D9BC00"/>
	<path d="m27.6 10.85l0.351 0.2c0.133 0.167 0.383 0.35 0.75 0.55 0.233 0.2 0.184 0.433-0.15 0.7-0.366 0.2-0.649 0.367-0.85 0.5-0.3 0.2-0.434 0.467-0.4 0.8-0.434-0.067-0.483-0.45-0.149-1.15 0.233-0.333 0.383-0.567 0.449-0.7 0.099-0.267 0.099-0.567-1e-3 -0.9z" fill="#D9BC00"/>
	<path d="m34.45 17.65h0.1c1.033 1.199 1.384 1.85 1.05 1.949-0.267 0.101-0.55-0.166-0.85-0.8-0.3-0.599-0.4-0.983-0.3-1.149z" fill="#FFF464"/>
	<path d="m23.1 17.35c0.134 0.101 0.15 0.301 0.051 0.601-0.2 0.467-0.551 0.7-1.051 0.7-0.11-0.774 0.04-1.274 0.45-1.5 0.334 0.099 0.516 0.165 0.55 0.199z" fill="#FFF464"/>
	<path d="m15.65 17.95c0.135-0.203 0.385-0.319 0.75-0.351 0.333-0.033 0.633 0 0.9 0.101-0.2 0.233-0.5 0.45-0.9 0.649-0.433 0.233-0.783 0.317-1.05 0.25-0.4-0.166-0.4-0.35 0-0.55 0.099-0.04 0.199-0.073 0.3-0.099z" fill="#FFF464"/>
	<path d="m26.6 14.95l-0.2-0.05 0.449-0.3c0.134 0.167 0.301 0.2 0.5 0.1 0.301-0.167 0.467-0.25 0.5-0.25 0.267-0.034 0.45 0.033 0.551 0.2 0.1 0.133 0.066 0.317-0.101 0.55-0.066 0.1-0.267 0.216-0.6 0.35-0.267 0.133-0.384 0.3-0.351 0.5 0.034 0.233 0.417 0.566 1.15 1-0.1 0.4-0.233 0.584-0.4 0.55-0.267-0.133-0.5-0.25-0.699-0.35-0.367-0.033-0.634-0.083-0.801-0.15-0.199-0.233-0.366-0.399-0.5-0.5-0.3-0.166-0.483-0.283-0.55-0.35-0.066-0.033-0.066-0.2 0-0.5 0.169-0.6 0.518-0.867 1.052-0.8z" fill="#BD5A2F"/>
	<path d="m32.2 18.05c0.133 0.101 0.267 0.267 0.399 0.5 0.2 0.167 0.551 0.334 1.051 0.5 0.366 0.2 0.449 0.533 0.25 1-0.567-0.2-0.983-0.3-1.25-0.3-0.167 0-0.351 0.05-0.551 0.15-0.199 0.133-0.366 0.2-0.499 0.2-0.3 0.067-0.483 0.017-0.55-0.149-0.066-0.233-0.133-0.417-0.2-0.55-0.133-0.167-0.267-0.267-0.399-0.301-0.2 0-0.4-0.033-0.601-0.1 0.067-0.3 0.317-0.483 0.75-0.55 0.208-0.018 0.399-9e-3 0.575 0.024 0.065-0.047 0.124-0.122 0.175-0.225 0.101-0.233 0.2-0.366 0.301-0.4 0.199-0.066 0.382 1e-3 0.549 0.201z" fill="#BD5A2F"/>
	<path d="m18.4 16.2l-0.375 0.024 0.025-0.024c0.1-0.066 0.217-0.066 0.35 0zm-1.4 0.55c0.233-0.033 0.483-0.134 0.75-0.3l0.1-0.101c0.154 0.046 0.321 0.013 0.5-0.1 0.167-0.066 0.383-0.233 0.65-0.5 0 0.033 0.2 0.233 0.6 0.6 0.233 0.2 0.25 0.384 0.05 0.551-0.033 0.066-0.167 0.083-0.4 0.05-0.233 0-0.383 0.017-0.45 0.05-0.167 0.1-0.233 0.2-0.2 0.3 0.033 0.167 0.033 0.283 0 0.351-0.133 0.333-0.3 0.449-0.5 0.35-0.3-0.2-0.567-0.333-0.8-0.4-0.133-0.033-0.45-0.017-0.95 0.051-0.434 0.066-0.717 0.033-0.85-0.101 0.233-0.401 0.733-0.667 1.5-0.801z" fill="#BD5A2F"/>
	<path d="m14.6 18.65c0.233-0.067 0.433-0.034 0.6 0.1-0.034 0.066-0.15 0.15-0.35 0.25-0.167 0.1-0.267 0.2-0.3 0.3 0 0.066 0.083 0.167 0.25 0.3 0.134 0.167 0.2 0.3 0.2 0.4-0.133-0.033-0.3-0.017-0.5 0.05-0.267 0.101-0.433 0.15-0.5 0.15-0.467-0.134-0.816-0.217-1.05-0.25-0.5-0.101-0.867-0.066-1.1 0.1-0.067 0.033-0.15 0.15-0.25 0.351-0.1 0.133-0.233 0.216-0.4 0.25-0.167 0-0.3-0.067-0.4-0.2-0.133-0.233-0.233-0.367-0.3-0.4l-1-0.25c-0.4 0.101-0.733 0.167-1 0.2-0.5 0.066-0.733-0.1-0.7-0.5 0.3-0.033 0.733 0.033 1.3 0.2v-0.2c0.233-0.167 0.55-0.217 0.95-0.15 0.5 0.101 0.817 0.134 0.95 0.101 0.1-0.334 0.6-0.434 1.5-0.3 0.9 0.166 1.45 0.017 1.65-0.45l-0.05 0.148v0.15c0.133-0.167 0.3-0.283 0.5-0.35z" fill="#BD5A2F"/>
	<path d="m20.75 11.05l0.65-0.225c-0.428 0.157-0.562 0.349-0.4 0.575 0.333 0.333 0.483 0.583 0.45 0.75-0.2 0.067-0.434 0.05-0.7-0.05s-0.467-0.15-0.6-0.15c-0.1 0-0.283 0.116-0.55 0.35-0.233 0.167-0.434 0.217-0.6 0.15 0.233-0.2 0.35-0.417 0.35-0.65-0.233-0.267-0.333-0.517-0.3-0.75 0.233-0.1 0.534-0.15 0.9-0.15s0.633 0.05 0.8 0.15z" fill="#BD5A2F"/>
	<path d="m22.1 19.35c0.167-0.033 0.384-0.1 0.65-0.199 0.156-0.039 0.306-0.048 0.45-0.025 0.104 0.028 0.203 0.069 0.3 0.125 0.021 0.044 0.021 0.102 0 0.175 0.087 0.061 0.188 0.119 0.3 0.175 0.367 0.2 0.601 0.384 0.7 0.551l-0.45 0.448-0.7 0.351c-0.233 0.1-0.416 0.2-0.55 0.3-0.133 0.2-0.25 0.333-0.35 0.4-0.134 0.166-0.267 0.267-0.4 0.3-0.5 0.133-0.666-0.15-0.5-0.851 0.2-0.767 0.117-1.199-0.25-1.3-0.033-0.3 0.05-0.467 0.25-0.5 0.1 0 0.283 0.016 0.55 0.05z" fill="#BD5A2F"/>
	<path d="m29.15 10.3c0.166 0 0.5 0.184 1 0.55 0.433 0.333 0.716 0.417 0.85 0.25l-0.05 0.25c0.166 0.133 0.45 0.183 0.85 0.15-0.7 0.566-1.133 0.85-1.3 0.85-0.1 0-0.25-0.1-0.45-0.3-0.166-0.167-0.35-0.25-0.55-0.25-0.366 0.1-0.616 0.15-0.75 0.15-0.2 0-0.417-0.15-0.65-0.45-0.5-0.733-0.716-1.184-0.649-1.35 0.2 0 0.45 0.133 0.75 0.4 0.332 0.1 0.649 0.016 0.949-0.25z" fill="#BD5A2F"/>
	<path d="m22.05 13.85c0.125-0.311 0.425-0.361 0.9-0.15 0.03 0.015 0.063 0.032 0.1 0.05-0.01 0.254-0.094 0.537-0.25 0.85-0.633-0.167-0.883-0.417-0.75-0.75z" fill="#BD5A2F"/>
</g>
</svg>
